HIERARCHY
ROOT joint_Root
{
	OFFSET 0.0 0.0 0.0
	CHANNELS 6 Xposition Yposition Zposition Zrotation Xrotation Yrotation 
	JOINT Hips
	{
		OFFSET -17.1583 93.1646 452.98
		CHANNELS 6 Xposition Yposition Zposition Zrotation Xrotation Yrotation 
		JOINT Spine
		{
			OFFSET 15.7357 0.0 0.0
			CHANNELS 6 Xposition Yposition Zposition Zrotation Xrotation Yrotation 
			JOINT Chest
			{
				OFFSET 8.98455 -0.406207 0.0
				CHANNELS 6 Xposition Yposition Zposition Zrotation Xrotation Yrotation 
				JOINT Neck
				{
					OFFSET 16.3773 0.0 0.0
					CHANNELS 6 Xposition Yposition Zposition Zrotation Xrotation Yrotation 
					JOINT Head
					{
						OFFSET 6.45672 0.0 0.0
						CHANNELS 6 Xposition Yposition Zposition Zrotation Xrotation Yrotation 
						End Site
						{
							OFFSET 0.0 0.0 0.0
						}
					}
				}
				JOINT Shoulder_L
				{
					OFFSET 12.9942 -0.242716 4.98039
					CHANNELS 6 Xposition Yposition Zposition Zrotation Xrotation Yrotation 
					JOINT UpperArm_L
					{
						OFFSET 5.34809 0.0 0.0
						CHANNELS 6 Xposition Yposition Zposition Zrotation Xrotation Yrotation 
						JOINT LowerArm_L
						{
							OFFSET 24.3286 1.87007e-05 0.0
							CHANNELS 6 Xposition Yposition Zposition Zrotation Xrotation Yrotation 
							JOINT Hand_L
							{
								OFFSET 22.2916 0.0 0.0
								CHANNELS 6 Xposition Yposition Zposition Zrotation Xrotation Yrotation 
								End Site
								{
									OFFSET 0.0 0.0 0.0
								}
							}
						}
					}
				}
				JOINT Shoulder_R
				{
					OFFSET 12.9945 -0.242716 -4.98039
					CHANNELS 6 Xposition Yposition Zposition Zrotation Xrotation Yrotation 
					JOINT UpperArm_R
					{
						OFFSET -5.34813 0.0 0.0
						CHANNELS 6 Xposition Yposition Zposition Zrotation Xrotation Yrotation 
						JOINT LowerArm_R
						{
							OFFSET -24.3289 0.000322201 0.0
							CHANNELS 6 Xposition Yposition Zposition Zrotation Xrotation Yrotation 
							JOINT Hand_R
							{
								OFFSET -22.2915 -0.000108084 0.0
								CHANNELS 6 Xposition Yposition Zposition Zrotation Xrotation Yrotation 
								End Site
								{
									OFFSET 0.0 0.0 0.0
								}
							}
						}
					}
				}
			}
		}
		JOINT UpperLeg_L
		{
			OFFSET -2.19248 -6.46944 0.0
			CHANNELS 6 Xposition Yposition Zposition Zrotation Xrotation Yrotation 
			JOINT LowerLeg_L
			{
				OFFSET 39.0811 0.0 -1.23785e-05
				CHANNELS 6 Xposition Yposition Zposition Zrotation Xrotation Yrotation 
				JOINT Foot_L
				{
					OFFSET 40.9854 0.0 -1.26872e-05
					CHANNELS 6 Xposition Yposition Zposition Zrotation Xrotation Yrotation 
					JOINT Toes_L
					{
						OFFSET 11.7543 0.0 0.0
						CHANNELS 6 Xposition Yposition Zposition Zrotation Xrotation Yrotation 
						End Site
						{
							OFFSET 0.0 0.0 0.0
						}
					}
				}
			}
		}
		JOINT UpperLeg_R
		{
			OFFSET -2.19251 6.46944 0.0
			CHANNELS 6 Xposition Yposition Zposition Zrotation Xrotation Yrotation 
			JOINT LowerLeg_R
			{
				OFFSET -39.0811 -0.00228153 -0.0401928
				CHANNELS 6 Xposition Yposition Zposition Zrotation Xrotation Yrotation 
				JOINT Foot_R
				{
					OFFSET -40.9854 0.0 0.0
					CHANNELS 6 Xposition Yposition Zposition Zrotation Xrotation Yrotation 
					JOINT Toes_R
					{
						OFFSET -11.7543 0.0 0.0
						CHANNELS 6 Xposition Yposition Zposition Zrotation Xrotation Yrotation 
						End Site
						{
							OFFSET 0.0 0.0 0.0
						}
					}
				}
			}
		}
	}
}
MOTION
Frames:	4
Frame Time:	0.0333333
0.000000 0.000000 0.000000 0.000000 0.000000 -0.000000 -4.489930 93.061200 -0.281848 88.665400 0.437703 -1.829550 15.735700 0.000005 -0.000001 94.208200 88.931900 -93.525400 8.984550 -0.406207 -0.000000 -5.635600 0.076760 1.370830 16.377300 -0.000001 -0.000001 3.186250 0.677701 -0.654396 6.456720 -0.000001 -0.000000 3.979310 -0.081819 5.878560 12.994200 -0.242716 4.980390 -92.584000 7.668100 -71.313600 5.348090 -0.000007 -0.000001 -73.520500 20.958800 3.886050 24.328600 0.000019 0.000005 13.633900 26.994000 -28.118800 22.291600 -0.000001 0.000005 -3.094070 5.024390 6.796500 12.994500 -0.242716 -4.980390 88.129400 6.202620 -73.181300 -5.348130 -0.000001 -0.000004 -71.112800 30.413200 -1.280370 -24.328900 0.000322 -0.000009 2.677810 8.260170 -18.039000 -22.291500 -0.000108 -0.000004 0.028555 5.255570 1.285080 -2.192480 -6.469440 -0.000000 -175.641000 -1.167420 -3.483750 39.081100 -0.000007 -0.000012 0.119309 -0.421798 15.794200 40.985400 -0.000006 -0.000013 -0.110240 9.653370 -70.030700 11.754300 -0.000000 0.000003 0.000532 0.158123 -10.163900 -2.192510 6.469440 -0.000001 -174.244000 10.213700 -179.657000 -39.081100 -0.002282 -0.040193 0.018091 -0.087565 9.562580 -40.985400 0.000008 0.000006 1.141760 4.497900 -67.677700 -11.754300 -0.000006 -0.000006 -0.008733 0.261584 -5.948410
0.000000 0.000000 0.000000 0.000000 0.000000 -0.000000 -4.472070 93.087300 -0.327800 88.620700 0.323704 -2.098250 15.735700 0.000005 -0.000001 93.478000 88.954700 -92.740700 8.984550 -0.406207 -0.000000 -5.679080 0.040207 1.478250 16.377300 -0.000001 -0.000001 2.898490 0.706604 -0.736249 6.456720 -0.000001 -0.000000 3.757860 -0.092699 5.612950 12.994200 -0.242716 4.980390 -92.570400 7.628420 -71.315900 5.348090 -0.000007 -0.000001 -73.257800 20.170900 3.822660 24.328600 0.000019 0.000005 13.834500 26.887000 -28.570400 22.291600 -0.000001 0.000005 -3.163800 5.029050 6.695440 12.994500 -0.242716 -4.980390 88.162900 6.104250 -73.214900 -5.348130 -0.000001 -0.000004 -71.050500 30.417900 -1.426510 -24.328900 0.000322 -0.000009 2.694380 8.291310 -18.080200 -22.291500 -0.000108 -0.000004 0.117739 5.255500 1.287030 -2.192480 -6.469440 -0.000000 -175.616000 -1.174790 -3.696420 39.081100 -0.000007 -0.000012 0.118472 -0.423228 15.638400 40.985400 -0.000006 -0.000013 -0.137830 9.555400 -69.960600 11.754300 -0.000000 0.000003 0.000375 0.161052 -10.045000 -2.192510 6.469440 -0.000001 -174.179000 10.112400 -179.844000 -39.081100 -0.002282 -0.040193 0.015950 -0.077069 9.292200 -40.985400 0.000008 0.000006 0.953818 4.518510 -67.403400 -11.754300 -0.000006 -0.000006 -0.008478 0.259555 -6.031320
0.000000 0.000000 0.000000 0.000000 0.000000 -0.000000 -4.452320 93.128700 -0.390878 88.570000 0.215534 -2.352290 15.735700 0.000005 -0.000001 92.957100 88.978000 -92.161600 8.984550 -0.406207 -0.000000 -5.724400 0.011708 1.593390 16.377300 -0.000001 -0.000001 2.603320 0.750482 -0.861591 6.456720 -0.000001 -0.000000 3.538770 -0.093897 5.292270 12.994200 -0.242716 4.980390 -92.528500 7.524090 -71.364200 5.348090 -0.000007 -0.000001 -72.925900 19.234500 3.661280 24.328600 0.000019 0.000005 13.906500 26.712000 -28.846500 22.291600 -0.000001 0.000005 -3.324800 5.031380 6.644840 12.994500 -0.242716 -4.980390 88.192900 6.016740 -73.248000 -5.348130 -0.000001 -0.000004 -71.008300 30.352300 -1.532520 -24.328900 0.000322 -0.000009 2.687270 8.260030 -18.099000 -22.291500 -0.000108 -0.000004 0.077033 5.254130 1.323510 -2.192480 -6.469440 -0.000000 -175.607000 -1.213540 -3.839270 39.081100 -0.000007 -0.000012 0.118130 -0.429750 15.370100 40.985400 -0.000006 -0.000013 -0.164683 9.419080 -69.881100 11.754300 -0.000000 0.000003 0.000367 0.161203 -10.038800 -2.192510 6.469440 -0.000001 -174.157000 9.995380 -179.980000 -39.081100 -0.002282 -0.040193 0.012641 -0.059077 8.946320 -40.985400 0.000008 0.000006 0.473709 4.672920 -67.035300 -11.754300 -0.000006 -0.000006 -0.008362 0.258632 -6.069000
0.000000 0.000000 0.000000 0.000000 0.000000 -0.000000 -4.434750 93.166100 -0.453367 88.508600 0.105836 -2.652580 15.735700 0.000005 -0.000001 92.640100 89.002900 -91.765100 8.984550 -0.406207 -0.000000 -5.773240 -0.011584 1.751500 16.377300 -0.000001 -0.000001 2.312070 0.850789 -1.099540 6.456720 -0.000001 -0.000000 3.202470 -0.088594 4.892490 12.994200 -0.242716 4.980390 -92.511400 7.492050 -71.408000 5.348090 -0.000007 -0.000001 -72.391900 18.076700 3.382850 24.328600 0.000019 0.000005 14.182600 26.928400 -29.162400 22.291600 -0.000001 0.000005 -3.441580 5.038800 6.483020 12.994500 -0.242716 -4.980390 88.236700 5.874280 -73.259500 -5.348130 -0.000001 -0.000004 -70.990200 30.269500 -1.694700 -24.328900 0.000322 -0.000009 2.688490 8.262620 -18.101400 -22.291500 -0.000108 -0.000004 0.120493 5.254170 1.322300 -2.192480 -6.469440 -0.000000 -175.567000 -1.269520 -4.040460 39.081100 -0.000007 -0.000012 0.116313 -0.430717 15.112200 40.985400 -0.000006 -0.000013 -0.190753 9.357140 -69.728000 11.754300 -0.000000 0.000003 0.000441 0.159845 -10.093900 -2.192510 6.469440 -0.000001 -174.092000 9.977860 179.885000 -39.081100 -0.002282 -0.040193 0.009791 -0.043166 8.497650 -40.985400 0.000008 0.000006 0.239141 4.831170 -66.684100 -11.754300 -0.000006 -0.000006 -0.008739 0.261630 -5.946530
